<svg width="302" height="148" viewBox="0 0 302 148" fill="none" xmlns="http://www.w3.org/2000/svg">
<path d="M14.1797 15.8C23.113 5.79999 37.713 0.799992 57.9797 0.799992C78.2464 0.799992 92.713 5.73333 101.38 15.6C110.18 25.4667 114.58 41.2667 114.58 63C114.58 77.8 112.646 89.4667 108.78 98C105.046 106.4 98.7797 113.267 89.9797 118.6V119.4H118.38L115.78 147.6H107.38C94.4464 147.6 83.6464 145 74.9797 139.8L57.1797 129C36.7797 129 22.2464 123.6 13.5797 112.8C5.04635 101.867 0.779688 85.4667 0.779688 63.6C0.779688 41.7333 5.24635 25.8 14.1797 15.8ZM68.9797 40.4C67.2464 36.9333 63.513 35.2 57.7797 35.2C52.0464 35.2 48.3797 36.8667 46.7797 40.2C45.1797 43.5333 44.3797 50.6667 44.3797 61.6V70.4C44.3797 81.6 45.2464 88.8667 46.9797 92.2C48.713 95.5333 52.513 97.2 58.3797 97.2C64.2464 97.2 67.913 95.6 69.3797 92.4C70.8464 89.2 71.5797 82.0667 71.5797 71V61.8C71.5797 50.8667 70.713 43.7333 68.9797 40.4ZM178.436 88.2H169.836V127H127.836V2.79999H176.236C192.636 2.79999 204.569 6.13332 212.036 12.8C219.503 19.4667 223.236 30.4667 223.236 45.8C223.236 61.1333 219.636 72.0667 212.436 78.6C205.236 85 193.903 88.2 178.436 88.2ZM180.436 59.2C181.636 57.0667 182.236 53.4667 182.236 48.4C182.236 43.3333 181.569 39.7333 180.236 37.6C179.036 35.4667 176.703 34.4 173.236 34.4H169.036V62.4H174.236C177.303 62.4 179.369 61.3333 180.436 59.2ZM301.514 38.2C301.514 49.2667 298.781 57.8 293.314 63.8C290.514 66.8667 287.647 69.4 284.714 71.4C281.781 73.4 277.981 75.6667 273.314 78.2V91.8H239.914V69.6C239.914 65.3333 240.781 61.8667 242.514 59.2C244.381 56.5333 247.381 54.3333 251.514 52.6C255.647 50.7333 258.447 49.1333 259.914 47.8C261.514 46.4667 262.314 44.6667 262.314 42.4C262.314 38.5333 260.047 36.6 255.514 36.6C252.847 36.6 244.247 38 229.714 40.8V6C242.381 3.19999 253.581 1.79999 263.314 1.79999C288.781 1.79999 301.514 13.9333 301.514 38.2ZM256.714 129C249.514 129 244.447 127.733 241.514 125.2C238.581 122.533 237.114 118.467 237.114 113C237.114 107.533 238.514 103.533 241.314 101C244.247 98.3333 249.381 97 256.714 97C264.047 97 269.114 98.3333 271.914 101C274.714 103.533 276.114 107.533 276.114 113C276.114 118.467 274.647 122.533 271.714 125.2C268.914 127.733 263.914 129 256.714 129Z" fill="white"/>
</svg>
